<mxfile host="Electron" modified="2024-04-12T21:57:01.640Z" agent="Mozilla/5.0 (Windows NT 10.0; Win64; x64) AppleWebKit/537.36 (KHTML, like Gecko) draw.io/24.1.0 Chrome/120.0.6099.109 Electron/28.1.0 Safari/537.36" etag="Nn6U9LiPSrvvvVKNYN3l" version="24.1.0" type="device">
  <diagram name="Page-1" id="vcCLzsLdFB5h7tMln-1w">
    <mxGraphModel dx="1080" dy="645" grid="1" gridSize="10" guides="1" tooltips="1" connect="1" arrows="1" fold="1" page="1" pageScale="1" pageWidth="850" pageHeight="1100" math="0" shadow="0">
      <root>
        <mxCell id="0" />
        <mxCell id="1" parent="0" />
        <mxCell id="soBD-OVY6Vn1v3jjJq4L-7" value="&lt;&lt;RestController&gt;&gt;&#xa;TimeSheetServiceController" style="swimlane;fontStyle=1;align=center;verticalAlign=top;childLayout=stackLayout;horizontal=1;startSize=43.38461538461539;horizontalStack=0;resizeParent=1;resizeParentMax=0;resizeLast=0;collapsible=0;marginBottom=0;fillColor=#dae8fc;strokeColor=#6c8ebf;" parent="1" vertex="1">
          <mxGeometry x="81" y="40" width="669" height="196.3846153846154" as="geometry" />
        </mxCell>
        <mxCell id="soBD-OVY6Vn1v3jjJq4L-8" value="-loTimeSheetService: TimeSheetService" style="text;strokeColor=none;fillColor=none;align=left;verticalAlign=top;spacingLeft=4;spacingRight=4;overflow=hidden;rotatable=0;points=[[0,0.5],[1,0.5]];portConstraint=eastwest;" parent="soBD-OVY6Vn1v3jjJq4L-7" vertex="1">
          <mxGeometry y="43.38461538461539" width="669" height="29" as="geometry" />
        </mxCell>
        <mxCell id="soBD-OVY6Vn1v3jjJq4L-9" style="line;strokeWidth=1;fillColor=none;align=left;verticalAlign=middle;spacingTop=-1;spacingLeft=3;spacingRight=3;rotatable=0;labelPosition=right;points=[];portConstraint=eastwest;strokeColor=inherit;" parent="soBD-OVY6Vn1v3jjJq4L-7" vertex="1">
          <mxGeometry y="72.38461538461539" width="669" height="8" as="geometry" />
        </mxCell>
        <mxCell id="soBD-OVY6Vn1v3jjJq4L-10" value="+saveTimeSheetEntry(poTimeSheet: TimeSheetDto): ResponseEntity" style="text;strokeColor=none;fillColor=none;align=left;verticalAlign=top;spacingLeft=4;spacingRight=4;overflow=hidden;rotatable=0;points=[[0,0.5],[1,0.5]];portConstraint=eastwest;" parent="soBD-OVY6Vn1v3jjJq4L-7" vertex="1">
          <mxGeometry y="80.38461538461539" width="669" height="29" as="geometry" />
        </mxCell>
        <mxCell id="soBD-OVY6Vn1v3jjJq4L-11" value="+getEntryBasedOnTimeSheetId(Id: int): ResponseEntity" style="text;strokeColor=none;fillColor=none;align=left;verticalAlign=top;spacingLeft=4;spacingRight=4;overflow=hidden;rotatable=0;points=[[0,0.5],[1,0.5]];portConstraint=eastwest;" parent="soBD-OVY6Vn1v3jjJq4L-7" vertex="1">
          <mxGeometry y="109.38461538461539" width="669" height="29" as="geometry" />
        </mxCell>
        <mxCell id="soBD-OVY6Vn1v3jjJq4L-12" value="+processTimeSheet(poTimeSheet: TimeSheetDto[], psMode: String): ResponseEntity" style="text;strokeColor=none;fillColor=none;align=left;verticalAlign=top;spacingLeft=4;spacingRight=4;overflow=hidden;rotatable=0;points=[[0,0.5],[1,0.5]];portConstraint=eastwest;" parent="soBD-OVY6Vn1v3jjJq4L-7" vertex="1">
          <mxGeometry y="138.3846153846154" width="669" height="29" as="geometry" />
        </mxCell>
        <mxCell id="soBD-OVY6Vn1v3jjJq4L-13" value="+getEntriesBasedOnPaginationAndSorting(psOffset: Integer, psPageSize: Integer, psFieldName: String, lsUserId: int): ResponseEntity&amp;gt;" style="text;strokeColor=none;fillColor=none;align=left;verticalAlign=top;spacingLeft=4;spacingRight=4;overflow=hidden;rotatable=0;points=[[0,0.5],[1,0.5]];portConstraint=eastwest;" parent="soBD-OVY6Vn1v3jjJq4L-7" vertex="1">
          <mxGeometry y="167.3846153846154" width="669" height="29" as="geometry" />
        </mxCell>
        <mxCell id="soBD-OVY6Vn1v3jjJq4L-30" value="&lt;&lt;Service&gt;&gt;&#xa;TimeSheetService" style="swimlane;fontStyle=1;align=center;verticalAlign=top;childLayout=stackLayout;horizontal=1;startSize=42.2;horizontalStack=0;resizeParent=1;resizeParentMax=0;resizeLast=0;collapsible=0;marginBottom=0;fillColor=#dae8fc;strokeColor=#6c8ebf;" parent="1" vertex="1">
          <mxGeometry x="70" y="290" width="625" height="218.2" as="geometry" />
        </mxCell>
        <mxCell id="soBD-OVY6Vn1v3jjJq4L-31" value="-loUserFactory: UserFactory" style="text;strokeColor=none;fillColor=none;align=left;verticalAlign=top;spacingLeft=4;spacingRight=4;overflow=hidden;rotatable=0;points=[[0,0.5],[1,0.5]];portConstraint=eastwest;" parent="soBD-OVY6Vn1v3jjJq4L-30" vertex="1">
          <mxGeometry y="42.2" width="625" height="28" as="geometry" />
        </mxCell>
        <mxCell id="soBD-OVY6Vn1v3jjJq4L-32" style="line;strokeWidth=1;fillColor=none;align=left;verticalAlign=middle;spacingTop=-1;spacingLeft=3;spacingRight=3;rotatable=0;labelPosition=right;points=[];portConstraint=eastwest;strokeColor=inherit;" parent="soBD-OVY6Vn1v3jjJq4L-30" vertex="1">
          <mxGeometry y="70.2" width="625" height="8" as="geometry" />
        </mxCell>
        <mxCell id="soBD-OVY6Vn1v3jjJq4L-33" value="+getUserObject(): AbstractUserActivity" style="text;strokeColor=none;fillColor=none;align=left;verticalAlign=top;spacingLeft=4;spacingRight=4;overflow=hidden;rotatable=0;points=[[0,0.5],[1,0.5]];portConstraint=eastwest;" parent="soBD-OVY6Vn1v3jjJq4L-30" vertex="1">
          <mxGeometry y="78.2" width="625" height="28" as="geometry" />
        </mxCell>
        <mxCell id="soBD-OVY6Vn1v3jjJq4L-34" value="+saveTimeSheetEntry(poTimeSheetEntity: TimeSheetDto): TimeSheetDto" style="text;strokeColor=none;fillColor=none;align=left;verticalAlign=top;spacingLeft=4;spacingRight=4;overflow=hidden;rotatable=0;points=[[0,0.5],[1,0.5]];portConstraint=eastwest;" parent="soBD-OVY6Vn1v3jjJq4L-30" vertex="1">
          <mxGeometry y="106.2" width="625" height="28" as="geometry" />
        </mxCell>
        <mxCell id="soBD-OVY6Vn1v3jjJq4L-35" value="+getEntryBasedOnTimeSheetId(id: int): TimeSheetDto" style="text;strokeColor=none;fillColor=none;align=left;verticalAlign=top;spacingLeft=4;spacingRight=4;overflow=hidden;rotatable=0;points=[[0,0.5],[1,0.5]];portConstraint=eastwest;" parent="soBD-OVY6Vn1v3jjJq4L-30" vertex="1">
          <mxGeometry y="134.2" width="625" height="28" as="geometry" />
        </mxCell>
        <mxCell id="soBD-OVY6Vn1v3jjJq4L-36" value="+getEntriesBasedOnPaginationAndSorting(psUserId: Integer, offset: Integer, pagesize: Integer, psFieldName: String): Page" style="text;strokeColor=none;fillColor=none;align=left;verticalAlign=top;spacingLeft=4;spacingRight=4;overflow=hidden;rotatable=0;points=[[0,0.5],[1,0.5]];portConstraint=eastwest;" parent="soBD-OVY6Vn1v3jjJq4L-30" vertex="1">
          <mxGeometry y="162.2" width="625" height="28" as="geometry" />
        </mxCell>
        <mxCell id="soBD-OVY6Vn1v3jjJq4L-37" value="+performTimeSheetTask(loTimeSheet: TimeSheetDto[], lsMode: String): TimeSheetDto[]" style="text;strokeColor=none;fillColor=none;align=left;verticalAlign=top;spacingLeft=4;spacingRight=4;overflow=hidden;rotatable=0;points=[[0,0.5],[1,0.5]];portConstraint=eastwest;" parent="soBD-OVY6Vn1v3jjJq4L-30" vertex="1">
          <mxGeometry y="190.2" width="625" height="28" as="geometry" />
        </mxCell>
        <mxCell id="soBD-OVY6Vn1v3jjJq4L-56" value="Employee" style="swimlane;fontStyle=1;align=center;verticalAlign=top;childLayout=stackLayout;horizontal=1;startSize=27.5;horizontalStack=0;resizeParent=1;resizeParentMax=0;resizeLast=0;collapsible=0;marginBottom=0;fillColor=#dae8fc;strokeColor=#6c8ebf;" parent="1" vertex="1">
          <mxGeometry x="75" y="580" width="615" height="203.5" as="geometry" />
        </mxCell>
        <mxCell id="soBD-OVY6Vn1v3jjJq4L-57" value="-loTimeSheetService: ITimeSheet" style="text;strokeColor=none;fillColor=none;align=left;verticalAlign=top;spacingLeft=4;spacingRight=4;overflow=hidden;rotatable=0;points=[[0,0.5],[1,0.5]];portConstraint=eastwest;" parent="soBD-OVY6Vn1v3jjJq4L-56" vertex="1">
          <mxGeometry y="27.5" width="615" height="28" as="geometry" />
        </mxCell>
        <mxCell id="soBD-OVY6Vn1v3jjJq4L-58" style="line;strokeWidth=1;fillColor=none;align=left;verticalAlign=middle;spacingTop=-1;spacingLeft=3;spacingRight=3;rotatable=0;labelPosition=right;points=[];portConstraint=eastwest;strokeColor=inherit;" parent="soBD-OVY6Vn1v3jjJq4L-56" vertex="1">
          <mxGeometry y="55.5" width="615" height="8" as="geometry" />
        </mxCell>
        <mxCell id="soBD-OVY6Vn1v3jjJq4L-59" value="+fillTimeSheet(poTimeSheetEntity: TimeSheetDto): TimeSheetDto" style="text;strokeColor=none;fillColor=none;align=left;verticalAlign=top;spacingLeft=4;spacingRight=4;overflow=hidden;rotatable=0;points=[[0,0.5],[1,0.5]];portConstraint=eastwest;labelBackgroundColor=none;fontColor=default;" parent="soBD-OVY6Vn1v3jjJq4L-56" vertex="1">
          <mxGeometry y="63.5" width="615" height="28" as="geometry" />
        </mxCell>
        <mxCell id="soBD-OVY6Vn1v3jjJq4L-60" value="+getEntryBasedOnTimeSheetId(id: int): TimeSheetDto" style="text;strokeColor=none;fillColor=none;align=left;verticalAlign=top;spacingLeft=4;spacingRight=4;overflow=hidden;rotatable=0;points=[[0,0.5],[1,0.5]];portConstraint=eastwest;" parent="soBD-OVY6Vn1v3jjJq4L-56" vertex="1">
          <mxGeometry y="91.5" width="615" height="28" as="geometry" />
        </mxCell>
        <mxCell id="soBD-OVY6Vn1v3jjJq4L-61" value="+getEntriesBasedOnPaginationAndSorting(lsUserId: Integer, offset: Integer, pagesize: Integer, psFieldName: String): Page" style="text;strokeColor=none;fillColor=none;align=left;verticalAlign=top;spacingLeft=4;spacingRight=4;overflow=hidden;rotatable=0;points=[[0,0.5],[1,0.5]];portConstraint=eastwest;" parent="soBD-OVY6Vn1v3jjJq4L-56" vertex="1">
          <mxGeometry y="119.5" width="615" height="28" as="geometry" />
        </mxCell>
        <mxCell id="M1rgYASL6K99FkpESGn_-24" value="+performTimeSheetTask(TimeSheet: TimeSheetDto[], lsMode: String): TimeSheetDto[]" style="text;strokeColor=none;fillColor=none;align=left;verticalAlign=top;spacingLeft=4;spacingRight=4;overflow=hidden;rotatable=0;points=[[0,0.5],[1,0.5]];portConstraint=eastwest;" vertex="1" parent="soBD-OVY6Vn1v3jjJq4L-56">
          <mxGeometry y="147.5" width="615" height="28" as="geometry" />
        </mxCell>
        <mxCell id="soBD-OVY6Vn1v3jjJq4L-62" value="-submitTimeSheetEntry(TimeSheet: TimeSheetDto[], lsMode: String): TimeSheetDto[]" style="text;strokeColor=none;fillColor=none;align=left;verticalAlign=top;spacingLeft=4;spacingRight=4;overflow=hidden;rotatable=0;points=[[0,0.5],[1,0.5]];portConstraint=eastwest;" parent="soBD-OVY6Vn1v3jjJq4L-56" vertex="1">
          <mxGeometry y="175.5" width="615" height="28" as="geometry" />
        </mxCell>
        <mxCell id="soBD-OVY6Vn1v3jjJq4L-78" value="&lt;&lt;Service&gt;&gt;&#xa;Admin" style="swimlane;fontStyle=1;align=center;verticalAlign=top;childLayout=stackLayout;horizontal=1;startSize=45;horizontalStack=0;resizeParent=1;resizeParentMax=0;resizeLast=0;collapsible=0;marginBottom=0;fillColor=#dae8fc;strokeColor=#6c8ebf;" parent="1" vertex="1">
          <mxGeometry x="640" y="910" width="420" height="143" as="geometry" />
        </mxCell>
        <mxCell id="soBD-OVY6Vn1v3jjJq4L-80" value="-loTimeSheetService: ITimeSheet" style="text;strokeColor=none;fillColor=none;align=left;verticalAlign=top;spacingLeft=4;spacingRight=4;overflow=hidden;rotatable=0;points=[[0,0.5],[1,0.5]];portConstraint=eastwest;" parent="soBD-OVY6Vn1v3jjJq4L-78" vertex="1">
          <mxGeometry y="45" width="420" height="30" as="geometry" />
        </mxCell>
        <mxCell id="soBD-OVY6Vn1v3jjJq4L-81" style="line;strokeWidth=1;fillColor=none;align=left;verticalAlign=middle;spacingTop=-1;spacingLeft=3;spacingRight=3;rotatable=0;labelPosition=right;points=[];portConstraint=eastwest;strokeColor=inherit;" parent="soBD-OVY6Vn1v3jjJq4L-78" vertex="1">
          <mxGeometry y="75" width="420" height="8" as="geometry" />
        </mxCell>
        <mxCell id="soBD-OVY6Vn1v3jjJq4L-82" value="+performTimeSheetTask(TimeSheet: TimeSheetDto[], ModeValue: String): TimeSheetDto[]" style="text;strokeColor=none;fillColor=none;align=left;verticalAlign=top;spacingLeft=4;spacingRight=4;overflow=hidden;rotatable=0;points=[[0,0.5],[1,0.5]];portConstraint=eastwest;" parent="soBD-OVY6Vn1v3jjJq4L-78" vertex="1">
          <mxGeometry y="83" width="420" height="30" as="geometry" />
        </mxCell>
        <mxCell id="soBD-OVY6Vn1v3jjJq4L-83" value="-ModifyApprovedTimeSheetEntry(loTimeSheet: TimeSheetDto[]): TimeSheetDto[]" style="text;strokeColor=none;fillColor=none;align=left;verticalAlign=top;spacingLeft=4;spacingRight=4;overflow=hidden;rotatable=0;points=[[0,0.5],[1,0.5]];portConstraint=eastwest;" parent="soBD-OVY6Vn1v3jjJq4L-78" vertex="1">
          <mxGeometry y="113" width="420" height="30" as="geometry" />
        </mxCell>
        <mxCell id="soBD-OVY6Vn1v3jjJq4L-99" value="&lt;&lt;Service&gt;&gt;&#xa;Manager" style="swimlane;fontStyle=1;align=center;verticalAlign=top;childLayout=stackLayout;horizontal=1;startSize=45;horizontalStack=0;resizeParent=1;resizeParentMax=0;resizeLast=0;collapsible=0;marginBottom=0;fillColor=#dae8fc;strokeColor=#6c8ebf;" parent="1" vertex="1">
          <mxGeometry x="50" y="910" width="400" height="173" as="geometry" />
        </mxCell>
        <mxCell id="soBD-OVY6Vn1v3jjJq4L-100" value="-loTimeSheetService: ITimeSheet" style="text;strokeColor=none;fillColor=none;align=left;verticalAlign=top;spacingLeft=4;spacingRight=4;overflow=hidden;rotatable=0;points=[[0,0.5],[1,0.5]];portConstraint=eastwest;" parent="soBD-OVY6Vn1v3jjJq4L-99" vertex="1">
          <mxGeometry y="45" width="400" height="30" as="geometry" />
        </mxCell>
        <mxCell id="soBD-OVY6Vn1v3jjJq4L-101" style="line;strokeWidth=1;fillColor=none;align=left;verticalAlign=middle;spacingTop=-1;spacingLeft=3;spacingRight=3;rotatable=0;labelPosition=right;points=[];portConstraint=eastwest;strokeColor=inherit;" parent="soBD-OVY6Vn1v3jjJq4L-99" vertex="1">
          <mxGeometry y="75" width="400" height="8" as="geometry" />
        </mxCell>
        <mxCell id="soBD-OVY6Vn1v3jjJq4L-102" value="-approveTimeSheet(loTimeSheet: TimeSheetDto[]): TimeSheetDto[]" style="text;strokeColor=none;fillColor=none;align=left;verticalAlign=top;spacingLeft=4;spacingRight=4;overflow=hidden;rotatable=0;points=[[0,0.5],[1,0.5]];portConstraint=eastwest;" parent="soBD-OVY6Vn1v3jjJq4L-99" vertex="1">
          <mxGeometry y="83" width="400" height="30" as="geometry" />
        </mxCell>
        <mxCell id="soBD-OVY6Vn1v3jjJq4L-103" value="+performTimeSheetTask(lsTimeSheet: TimeSheetDto[], lsMode: String): TimeSheetDto[]" style="text;strokeColor=none;fillColor=none;align=left;verticalAlign=top;spacingLeft=4;spacingRight=4;overflow=hidden;rotatable=0;points=[[0,0.5],[1,0.5]];portConstraint=eastwest;" parent="soBD-OVY6Vn1v3jjJq4L-99" vertex="1">
          <mxGeometry y="113" width="400" height="30" as="geometry" />
        </mxCell>
        <mxCell id="soBD-OVY6Vn1v3jjJq4L-104" value="-rejectTimeSheet(lsTimeSheet: TimeSheetDto[]): TimeSheetDto[]" style="text;strokeColor=none;fillColor=none;align=left;verticalAlign=top;spacingLeft=4;spacingRight=4;overflow=hidden;rotatable=0;points=[[0,0.5],[1,0.5]];portConstraint=eastwest;" parent="soBD-OVY6Vn1v3jjJq4L-99" vertex="1">
          <mxGeometry y="143" width="400" height="30" as="geometry" />
        </mxCell>
        <mxCell id="soBD-OVY6Vn1v3jjJq4L-125" value="&lt;&lt;JpaRepository&gt;&gt;&#xa;TimeSheetRepo" style="swimlane;fontStyle=1;align=center;verticalAlign=top;childLayout=stackLayout;horizontal=1;startSize=44.625;horizontalStack=0;resizeParent=1;resizeParentMax=0;resizeLast=0;collapsible=0;marginBottom=0;fillColor=#dae8fc;strokeColor=#6c8ebf;" parent="1" vertex="1">
          <mxGeometry x="119" y="1730" width="542" height="112.625" as="geometry" />
        </mxCell>
        <mxCell id="soBD-OVY6Vn1v3jjJq4L-126" style="line;strokeWidth=1;fillColor=none;align=left;verticalAlign=middle;spacingTop=-1;spacingLeft=3;spacingRight=3;rotatable=0;labelPosition=right;points=[];portConstraint=eastwest;strokeColor=inherit;" parent="soBD-OVY6Vn1v3jjJq4L-125" vertex="1">
          <mxGeometry y="44.625" width="542" height="8" as="geometry" />
        </mxCell>
        <mxCell id="soBD-OVY6Vn1v3jjJq4L-127" value="+findById(Integer Id): Optional" style="text;strokeColor=none;fillColor=none;align=left;verticalAlign=top;spacingLeft=4;spacingRight=4;overflow=hidden;rotatable=0;points=[[0,0.5],[1,0.5]];portConstraint=eastwest;" parent="soBD-OVY6Vn1v3jjJq4L-125" vertex="1">
          <mxGeometry y="52.625" width="542" height="30" as="geometry" />
        </mxCell>
        <mxCell id="soBD-OVY6Vn1v3jjJq4L-128" value="+findByLsUserEntity_LsUserid(Integer psId, PageRequest pageable): Page" style="text;strokeColor=none;fillColor=none;align=left;verticalAlign=top;spacingLeft=4;spacingRight=4;overflow=hidden;rotatable=0;points=[[0,0.5],[1,0.5]];portConstraint=eastwest;" parent="soBD-OVY6Vn1v3jjJq4L-125" vertex="1">
          <mxGeometry y="82.625" width="542" height="30" as="geometry" />
        </mxCell>
        <mxCell id="soBD-OVY6Vn1v3jjJq4L-129" value="&lt;&lt;ManyToOne&gt;&gt;&#xa;TimeSheetEntity" style="swimlane;fontStyle=1;align=center;verticalAlign=top;childLayout=stackLayout;horizontal=1;startSize=39.5625;horizontalStack=0;resizeParent=1;resizeParentMax=0;resizeLast=0;collapsible=0;marginBottom=0;fillColor=#ffe6cc;strokeColor=#d79b00;" parent="1" vertex="1">
          <mxGeometry x="210" y="1930" width="273" height="208.5625" as="geometry" />
        </mxCell>
        <mxCell id="soBD-OVY6Vn1v3jjJq4L-130" value="- id: Integer" style="text;strokeColor=none;fillColor=none;align=left;verticalAlign=top;spacingLeft=4;spacingRight=4;overflow=hidden;rotatable=0;points=[[0,0.5],[1,0.5]];portConstraint=eastwest;" parent="soBD-OVY6Vn1v3jjJq4L-129" vertex="1">
          <mxGeometry y="39.5625" width="273" height="26" as="geometry" />
        </mxCell>
        <mxCell id="soBD-OVY6Vn1v3jjJq4L-131" value="- ldEntryDate: Date" style="text;strokeColor=none;fillColor=none;align=left;verticalAlign=top;spacingLeft=4;spacingRight=4;overflow=hidden;rotatable=0;points=[[0,0.5],[1,0.5]];portConstraint=eastwest;" parent="soBD-OVY6Vn1v3jjJq4L-129" vertex="1">
          <mxGeometry y="65.5625" width="273" height="26" as="geometry" />
        </mxCell>
        <mxCell id="soBD-OVY6Vn1v3jjJq4L-132" value="- lsInputChannel: String" style="text;strokeColor=none;fillColor=none;align=left;verticalAlign=top;spacingLeft=4;spacingRight=4;overflow=hidden;rotatable=0;points=[[0,0.5],[1,0.5]];portConstraint=eastwest;" parent="soBD-OVY6Vn1v3jjJq4L-129" vertex="1">
          <mxGeometry y="91.5625" width="273" height="26" as="geometry" />
        </mxCell>
        <mxCell id="soBD-OVY6Vn1v3jjJq4L-133" value="- lsDescription: String" style="text;strokeColor=none;fillColor=none;align=left;verticalAlign=top;spacingLeft=4;spacingRight=4;overflow=hidden;rotatable=0;points=[[0,0.5],[1,0.5]];portConstraint=eastwest;" parent="soBD-OVY6Vn1v3jjJq4L-129" vertex="1">
          <mxGeometry y="117.5625" width="273" height="26" as="geometry" />
        </mxCell>
        <mxCell id="soBD-OVY6Vn1v3jjJq4L-134" value="- lsStatus: String" style="text;strokeColor=none;fillColor=none;align=left;verticalAlign=top;spacingLeft=4;spacingRight=4;overflow=hidden;rotatable=0;points=[[0,0.5],[1,0.5]];portConstraint=eastwest;" parent="soBD-OVY6Vn1v3jjJq4L-129" vertex="1">
          <mxGeometry y="143.5625" width="273" height="26" as="geometry" />
        </mxCell>
        <mxCell id="soBD-OVY6Vn1v3jjJq4L-135" value="- lsUserEntity: UserTimeSheetEntity" style="text;strokeColor=none;fillColor=none;align=left;verticalAlign=top;spacingLeft=4;spacingRight=4;overflow=hidden;rotatable=0;points=[[0,0.5],[1,0.5]];portConstraint=eastwest;" parent="soBD-OVY6Vn1v3jjJq4L-129" vertex="1">
          <mxGeometry y="169.5625" width="273" height="26" as="geometry" />
        </mxCell>
        <mxCell id="soBD-OVY6Vn1v3jjJq4L-136" style="line;strokeWidth=1;fillColor=none;align=left;verticalAlign=middle;spacingTop=-1;spacingLeft=3;spacingRight=3;rotatable=0;labelPosition=right;points=[];portConstraint=eastwest;strokeColor=inherit;" parent="soBD-OVY6Vn1v3jjJq4L-129" vertex="1">
          <mxGeometry y="195.5625" width="273" height="13" as="geometry" />
        </mxCell>
        <mxCell id="soBD-OVY6Vn1v3jjJq4L-137" value="&lt;&lt;OneToMany&gt;&gt;&#xa;UserTimeSheetEntity" style="swimlane;fontStyle=1;align=center;verticalAlign=top;childLayout=stackLayout;horizontal=1;startSize=42.599999999999994;horizontalStack=0;resizeParent=1;resizeParentMax=0;resizeLast=0;collapsible=0;marginBottom=0;fillColor=#ffe6cc;strokeColor=#d79b00;" parent="1" vertex="1">
          <mxGeometry x="689.5" y="1990" width="201" height="140.6" as="geometry" />
        </mxCell>
        <mxCell id="soBD-OVY6Vn1v3jjJq4L-138" value="- lsUserid: Integer" style="text;strokeColor=none;fillColor=none;align=left;verticalAlign=top;spacingLeft=4;spacingRight=4;overflow=hidden;rotatable=0;points=[[0,0.5],[1,0.5]];portConstraint=eastwest;" parent="soBD-OVY6Vn1v3jjJq4L-137" vertex="1">
          <mxGeometry y="42.599999999999994" width="201" height="28" as="geometry" />
        </mxCell>
        <mxCell id="soBD-OVY6Vn1v3jjJq4L-139" value="- lsUserName: String" style="text;strokeColor=none;fillColor=none;align=left;verticalAlign=top;spacingLeft=4;spacingRight=4;overflow=hidden;rotatable=0;points=[[0,0.5],[1,0.5]];portConstraint=eastwest;" parent="soBD-OVY6Vn1v3jjJq4L-137" vertex="1">
          <mxGeometry y="70.6" width="201" height="28" as="geometry" />
        </mxCell>
        <mxCell id="soBD-OVY6Vn1v3jjJq4L-140" value="- loTimeSheetEntries: List" style="text;strokeColor=none;fillColor=none;align=left;verticalAlign=top;spacingLeft=4;spacingRight=4;overflow=hidden;rotatable=0;points=[[0,0.5],[1,0.5]];portConstraint=eastwest;" parent="soBD-OVY6Vn1v3jjJq4L-137" vertex="1">
          <mxGeometry y="98.6" width="201" height="28" as="geometry" />
        </mxCell>
        <mxCell id="soBD-OVY6Vn1v3jjJq4L-141" style="line;strokeWidth=1;fillColor=none;align=left;verticalAlign=middle;spacingTop=-1;spacingLeft=3;spacingRight=3;rotatable=0;labelPosition=right;points=[];portConstraint=eastwest;strokeColor=inherit;" parent="soBD-OVY6Vn1v3jjJq4L-137" vertex="1">
          <mxGeometry y="126.6" width="201" height="14" as="geometry" />
        </mxCell>
        <mxCell id="soBD-OVY6Vn1v3jjJq4L-117" value="ITimeSheetImpl" style="swimlane;fontStyle=1;align=center;verticalAlign=top;childLayout=stackLayout;horizontal=1;startSize=25.066666666666666;horizontalStack=0;resizeParent=1;resizeParentMax=0;resizeLast=0;collapsible=0;marginBottom=0;fillColor=#dae8fc;strokeColor=#6c8ebf;" parent="1" vertex="1">
          <mxGeometry x="60" y="1460" width="650" height="217.06666666666666" as="geometry" />
        </mxCell>
        <mxCell id="M1rgYASL6K99FkpESGn_-22" value="+ loRepo: TimeSheetRepo" style="text;strokeColor=none;fillColor=none;align=left;verticalAlign=top;spacingLeft=4;spacingRight=4;overflow=hidden;rotatable=0;points=[[0,0.5],[1,0.5]];portConstraint=eastwest;whiteSpace=wrap;html=1;" vertex="1" parent="soBD-OVY6Vn1v3jjJq4L-117">
          <mxGeometry y="25.066666666666666" width="650" height="26" as="geometry" />
        </mxCell>
        <mxCell id="M1rgYASL6K99FkpESGn_-20" style="line;strokeWidth=1;fillColor=none;align=left;verticalAlign=middle;spacingTop=-1;spacingLeft=3;spacingRight=3;rotatable=0;labelPosition=right;points=[];portConstraint=eastwest;strokeColor=inherit;" vertex="1" parent="soBD-OVY6Vn1v3jjJq4L-117">
          <mxGeometry y="51.06666666666666" width="650" height="8" as="geometry" />
        </mxCell>
        <mxCell id="M1rgYASL6K99FkpESGn_-21" style="line;strokeWidth=1;fillColor=none;align=left;verticalAlign=middle;spacingTop=-1;spacingLeft=3;spacingRight=3;rotatable=0;labelPosition=right;points=[];portConstraint=eastwest;strokeColor=inherit;" vertex="1" parent="soBD-OVY6Vn1v3jjJq4L-117">
          <mxGeometry y="59.06666666666666" width="650" height="8" as="geometry" />
        </mxCell>
        <mxCell id="soBD-OVY6Vn1v3jjJq4L-119" value="+saveTimeSheetEntity(poTimeSheetDto: TimeSheetDto): TimeSheetDto" style="text;strokeColor=none;fillColor=none;align=left;verticalAlign=top;spacingLeft=4;spacingRight=4;overflow=hidden;rotatable=0;points=[[0,0.5],[1,0.5]];portConstraint=eastwest;" parent="soBD-OVY6Vn1v3jjJq4L-117" vertex="1">
          <mxGeometry y="67.06666666666666" width="650" height="25" as="geometry" />
        </mxCell>
        <mxCell id="soBD-OVY6Vn1v3jjJq4L-120" value="+approveTimeSheetEntity(poTimeSheet: TimeSheetDto[]): TimeSheetDto[]" style="text;strokeColor=none;fillColor=none;align=left;verticalAlign=top;spacingLeft=4;spacingRight=4;overflow=hidden;rotatable=0;points=[[0,0.5],[1,0.5]];portConstraint=eastwest;" parent="soBD-OVY6Vn1v3jjJq4L-117" vertex="1">
          <mxGeometry y="92.06666666666666" width="650" height="25" as="geometry" />
        </mxCell>
        <mxCell id="soBD-OVY6Vn1v3jjJq4L-121" value="+rejectTimeSheetEntity(poTimeSheet: TimeSheetDto[]): TimeSheetDto[]" style="text;strokeColor=none;fillColor=none;align=left;verticalAlign=top;spacingLeft=4;spacingRight=4;overflow=hidden;rotatable=0;points=[[0,0.5],[1,0.5]];portConstraint=eastwest;" parent="soBD-OVY6Vn1v3jjJq4L-117" vertex="1">
          <mxGeometry y="117.06666666666666" width="650" height="25" as="geometry" />
        </mxCell>
        <mxCell id="soBD-OVY6Vn1v3jjJq4L-122" value="+submitTimeSheetEntity(poTimeSheet: TimeSheetDto[]): TimeSheetDto[]" style="text;strokeColor=none;fillColor=none;align=left;verticalAlign=top;spacingLeft=4;spacingRight=4;overflow=hidden;rotatable=0;points=[[0,0.5],[1,0.5]];portConstraint=eastwest;" parent="soBD-OVY6Vn1v3jjJq4L-117" vertex="1">
          <mxGeometry y="142.06666666666666" width="650" height="25" as="geometry" />
        </mxCell>
        <mxCell id="soBD-OVY6Vn1v3jjJq4L-123" value="+getTimeSheetEntry(lnId: int): TimeSheetDto" style="text;strokeColor=none;fillColor=none;align=left;verticalAlign=top;spacingLeft=4;spacingRight=4;overflow=hidden;rotatable=0;points=[[0,0.5],[1,0.5]];portConstraint=eastwest;" parent="soBD-OVY6Vn1v3jjJq4L-117" vertex="1">
          <mxGeometry y="167.06666666666666" width="650" height="25" as="geometry" />
        </mxCell>
        <mxCell id="soBD-OVY6Vn1v3jjJq4L-124" value="+getEntriesBasedOnPaginationAndSorting(psId: Integer, offset: Integer, pagesize: Integer, psFieldName: String): Page" style="text;strokeColor=none;fillColor=none;align=left;verticalAlign=top;spacingLeft=4;spacingRight=4;overflow=hidden;rotatable=0;points=[[0,0.5],[1,0.5]];portConstraint=eastwest;" parent="soBD-OVY6Vn1v3jjJq4L-117" vertex="1">
          <mxGeometry y="192.06666666666666" width="650" height="25" as="geometry" />
        </mxCell>
        <mxCell id="soBD-OVY6Vn1v3jjJq4L-155" value="&lt;&lt;Interface&gt;&gt;&#xa;ITimeSheet &#xa;" style="swimlane;fontStyle=1;align=center;verticalAlign=top;childLayout=stackLayout;horizontal=1;startSize=40;horizontalStack=0;resizeParent=1;resizeParentMax=0;resizeLast=0;collapsible=0;marginBottom=0;fillColor=#d5e8d4;strokeColor=#82b366;" parent="1" vertex="1">
          <mxGeometry x="70" y="1190" width="590" height="198" as="geometry" />
        </mxCell>
        <mxCell id="soBD-OVY6Vn1v3jjJq4L-156" style="line;strokeWidth=1;fillColor=none;align=left;verticalAlign=middle;spacingTop=-1;spacingLeft=3;spacingRight=3;rotatable=0;labelPosition=right;points=[];portConstraint=eastwest;strokeColor=inherit;" parent="soBD-OVY6Vn1v3jjJq4L-155" vertex="1">
          <mxGeometry y="40" width="590" height="8" as="geometry" />
        </mxCell>
        <mxCell id="soBD-OVY6Vn1v3jjJq4L-157" value="+saveTimeSheetEntity(poTimeSheetDto: TimeSheetDto): TimeSheetDto" style="text;strokeColor=none;fillColor=none;align=left;verticalAlign=top;spacingLeft=4;spacingRight=4;overflow=hidden;rotatable=0;points=[[0,0.5],[1,0.5]];portConstraint=eastwest;" parent="soBD-OVY6Vn1v3jjJq4L-155" vertex="1">
          <mxGeometry y="48" width="590" height="25" as="geometry" />
        </mxCell>
        <mxCell id="soBD-OVY6Vn1v3jjJq4L-158" value="+approveTimeSheetEntity(poTimeSheet: TimeSheetDto[]): TimeSheetDto[]" style="text;strokeColor=none;fillColor=none;align=left;verticalAlign=top;spacingLeft=4;spacingRight=4;overflow=hidden;rotatable=0;points=[[0,0.5],[1,0.5]];portConstraint=eastwest;" parent="soBD-OVY6Vn1v3jjJq4L-155" vertex="1">
          <mxGeometry y="73" width="590" height="25" as="geometry" />
        </mxCell>
        <mxCell id="soBD-OVY6Vn1v3jjJq4L-159" value="+rejectTimeSheetEntity(poTimeSheet: TimeSheetDto[]): TimeSheetDto[]" style="text;strokeColor=none;fillColor=none;align=left;verticalAlign=top;spacingLeft=4;spacingRight=4;overflow=hidden;rotatable=0;points=[[0,0.5],[1,0.5]];portConstraint=eastwest;" parent="soBD-OVY6Vn1v3jjJq4L-155" vertex="1">
          <mxGeometry y="98" width="590" height="25" as="geometry" />
        </mxCell>
        <mxCell id="soBD-OVY6Vn1v3jjJq4L-160" value="+submitTimeSheetEntity(poTimeSheet: TimeSheetDto[]): TimeSheetDto[]" style="text;strokeColor=none;fillColor=none;align=left;verticalAlign=top;spacingLeft=4;spacingRight=4;overflow=hidden;rotatable=0;points=[[0,0.5],[1,0.5]];portConstraint=eastwest;" parent="soBD-OVY6Vn1v3jjJq4L-155" vertex="1">
          <mxGeometry y="123" width="590" height="25" as="geometry" />
        </mxCell>
        <mxCell id="soBD-OVY6Vn1v3jjJq4L-161" value="+getTimeSheetEntry(lnId: int): TimeSheetDto" style="text;strokeColor=none;fillColor=none;align=left;verticalAlign=top;spacingLeft=4;spacingRight=4;overflow=hidden;rotatable=0;points=[[0,0.5],[1,0.5]];portConstraint=eastwest;" parent="soBD-OVY6Vn1v3jjJq4L-155" vertex="1">
          <mxGeometry y="148" width="590" height="25" as="geometry" />
        </mxCell>
        <mxCell id="soBD-OVY6Vn1v3jjJq4L-162" value="+getEntriesBasedOnPaginationAndSorting(psId: Integer, offset: Integer, pagesize: Integer, psFieldName: String): Page" style="text;strokeColor=none;fillColor=none;align=left;verticalAlign=top;spacingLeft=4;spacingRight=4;overflow=hidden;rotatable=0;points=[[0,0.5],[1,0.5]];portConstraint=eastwest;" parent="soBD-OVY6Vn1v3jjJq4L-155" vertex="1">
          <mxGeometry y="173" width="590" height="25" as="geometry" />
        </mxCell>
        <mxCell id="soBD-OVY6Vn1v3jjJq4L-186" value="UserFactoryImpl" style="swimlane;fontStyle=1;align=center;verticalAlign=top;childLayout=stackLayout;horizontal=1;startSize=32;horizontalStack=0;resizeParent=1;resizeParentMax=0;resizeLast=0;collapsible=0;marginBottom=0;fillColor=#dae8fc;strokeColor=#6c8ebf;" parent="1" vertex="1">
          <mxGeometry x="800" y="688" width="360" height="104" as="geometry" />
        </mxCell>
        <mxCell id="soBD-OVY6Vn1v3jjJq4L-187" value="- final Map allUserObj" style="text;strokeColor=none;fillColor=none;align=left;verticalAlign=top;spacingLeft=4;spacingRight=4;overflow=hidden;rotatable=0;points=[[0,0.5],[1,0.5]];portConstraint=eastwest;" parent="soBD-OVY6Vn1v3jjJq4L-186" vertex="1">
          <mxGeometry y="32" width="360" height="32" as="geometry" />
        </mxCell>
        <mxCell id="soBD-OVY6Vn1v3jjJq4L-188" style="line;strokeWidth=1;fillColor=none;align=left;verticalAlign=middle;spacingTop=-1;spacingLeft=3;spacingRight=3;rotatable=0;labelPosition=right;points=[];portConstraint=eastwest;strokeColor=inherit;" parent="soBD-OVY6Vn1v3jjJq4L-186" vertex="1">
          <mxGeometry y="64" width="360" height="8" as="geometry" />
        </mxCell>
        <mxCell id="soBD-OVY6Vn1v3jjJq4L-189" value="+ Employee getUserObj(String psRole)" style="text;strokeColor=none;fillColor=none;align=left;verticalAlign=top;spacingLeft=4;spacingRight=4;overflow=hidden;rotatable=0;points=[[0,0.5],[1,0.5]];portConstraint=eastwest;" parent="soBD-OVY6Vn1v3jjJq4L-186" vertex="1">
          <mxGeometry y="72" width="360" height="32" as="geometry" />
        </mxCell>
        <mxCell id="soBD-OVY6Vn1v3jjJq4L-193" value="UserFactory" style="swimlane;fontStyle=1;align=center;verticalAlign=top;childLayout=stackLayout;horizontal=1;startSize=29.2;horizontalStack=0;resizeParent=1;resizeParentMax=0;resizeLast=0;collapsible=0;marginBottom=0;fillColor=#d5e8d4;strokeColor=#82b366;" parent="1" vertex="1">
          <mxGeometry x="880" y="550" width="182" height="66.2" as="geometry" />
        </mxCell>
        <mxCell id="soBD-OVY6Vn1v3jjJq4L-194" style="line;strokeWidth=1;fillColor=none;align=left;verticalAlign=middle;spacingTop=-1;spacingLeft=3;spacingRight=3;rotatable=0;labelPosition=right;points=[];portConstraint=eastwest;strokeColor=inherit;" parent="soBD-OVY6Vn1v3jjJq4L-193" vertex="1">
          <mxGeometry y="29.2" width="182" height="8" as="geometry" />
        </mxCell>
        <mxCell id="soBD-OVY6Vn1v3jjJq4L-195" value="getUserObj(String role)" style="text;strokeColor=none;fillColor=none;align=left;verticalAlign=top;spacingLeft=4;spacingRight=4;overflow=hidden;rotatable=0;points=[[0,0.5],[1,0.5]];portConstraint=eastwest;" parent="soBD-OVY6Vn1v3jjJq4L-193" vertex="1">
          <mxGeometry y="37.2" width="182" height="29" as="geometry" />
        </mxCell>
        <mxCell id="soBD-OVY6Vn1v3jjJq4L-212" value="Relation" style="endArrow=open;html=1;endSize=12;startArrow=diamondThin;startSize=14;startFill=0;edgeStyle=orthogonalEdgeStyle;rounded=0;exitX=0.989;exitY=0.709;exitDx=0;exitDy=0;exitPerimeter=0;entryX=-0.022;entryY=0.264;entryDx=0;entryDy=0;entryPerimeter=0;" parent="1" edge="1" target="soBD-OVY6Vn1v3jjJq4L-138" source="soBD-OVY6Vn1v3jjJq4L-132">
          <mxGeometry x="0.1651" y="20" relative="1" as="geometry">
            <mxPoint x="488.5" y="2050" as="sourcePoint" />
            <mxPoint x="649" y="2050" as="targetPoint" />
            <mxPoint x="1" as="offset" />
            <Array as="points" />
          </mxGeometry>
        </mxCell>
        <mxCell id="soBD-OVY6Vn1v3jjJq4L-213" value="0..n" style="edgeLabel;resizable=0;html=1;align=left;verticalAlign=top;" parent="soBD-OVY6Vn1v3jjJq4L-212" connectable="0" vertex="1">
          <mxGeometry x="-1" relative="1" as="geometry" />
        </mxCell>
        <mxCell id="soBD-OVY6Vn1v3jjJq4L-214" value="1" style="edgeLabel;resizable=0;html=1;align=right;verticalAlign=top;" parent="soBD-OVY6Vn1v3jjJq4L-212" connectable="0" vertex="1">
          <mxGeometry x="1" relative="1" as="geometry" />
        </mxCell>
        <mxCell id="soBD-OVY6Vn1v3jjJq4L-224" value="" style="line;strokeWidth=2;html=1;" parent="1" vertex="1">
          <mxGeometry x="240" y="810" width="450" as="geometry" />
        </mxCell>
        <mxCell id="soBD-OVY6Vn1v3jjJq4L-228" value="" style="shape=partialRectangle;whiteSpace=wrap;html=1;bottom=0;right=0;fillColor=none;" parent="1" vertex="1">
          <mxGeometry x="230" y="850" width="560" height="60" as="geometry" />
        </mxCell>
        <mxCell id="soBD-OVY6Vn1v3jjJq4L-231" value="" style="line;strokeWidth=2;direction=south;html=1;" parent="1" vertex="1">
          <mxGeometry x="785" y="850" width="10" height="60" as="geometry" />
        </mxCell>
        <mxCell id="soBD-OVY6Vn1v3jjJq4L-232" value="Extends" style="endArrow=block;endSize=16;endFill=0;html=1;rounded=0;exitX=0.432;exitY=0.017;exitDx=0;exitDy=0;exitPerimeter=0;entryX=0.644;entryY=1.054;entryDx=0;entryDy=0;entryPerimeter=0;" parent="1" source="soBD-OVY6Vn1v3jjJq4L-228" target="soBD-OVY6Vn1v3jjJq4L-62" edge="1">
          <mxGeometry width="160" relative="1" as="geometry">
            <mxPoint x="310" y="800" as="sourcePoint" />
            <mxPoint x="470" y="760" as="targetPoint" />
          </mxGeometry>
        </mxCell>
        <mxCell id="soBD-OVY6Vn1v3jjJq4L-233" value="" style="endArrow=block;dashed=1;endFill=0;endSize=12;html=1;rounded=0;exitX=0.472;exitY=0.01;exitDx=0;exitDy=0;exitPerimeter=0;" parent="1" source="soBD-OVY6Vn1v3jjJq4L-186" edge="1">
          <mxGeometry width="160" relative="1" as="geometry">
            <mxPoint x="560" y="700" as="sourcePoint" />
            <mxPoint x="970" y="620" as="targetPoint" />
          </mxGeometry>
        </mxCell>
        <mxCell id="soBD-OVY6Vn1v3jjJq4L-234" value="" style="endArrow=block;dashed=1;endFill=0;endSize=12;html=1;rounded=0;entryX=0.557;entryY=1.18;entryDx=0;entryDy=0;entryPerimeter=0;exitX=0.52;exitY=0;exitDx=0;exitDy=0;exitPerimeter=0;" parent="1" source="soBD-OVY6Vn1v3jjJq4L-117" target="soBD-OVY6Vn1v3jjJq4L-162" edge="1">
          <mxGeometry width="160" relative="1" as="geometry">
            <mxPoint x="180" y="1500" as="sourcePoint" />
            <mxPoint x="340" y="1500" as="targetPoint" />
          </mxGeometry>
        </mxCell>
        <mxCell id="soBD-OVY6Vn1v3jjJq4L-243" value="" style="endArrow=classic;html=1;rounded=0;exitX=0.422;exitY=0.952;exitDx=0;exitDy=0;exitPerimeter=0;entryX=0.469;entryY=0;entryDx=0;entryDy=0;entryPerimeter=0;" parent="1" source="soBD-OVY6Vn1v3jjJq4L-13" target="soBD-OVY6Vn1v3jjJq4L-30" edge="1">
          <mxGeometry width="50" height="50" relative="1" as="geometry">
            <mxPoint x="420" y="420" as="sourcePoint" />
            <mxPoint x="470" y="370" as="targetPoint" />
          </mxGeometry>
        </mxCell>
        <mxCell id="soBD-OVY6Vn1v3jjJq4L-256" value="" style="html=1;startArrow=diamondThin;startFill=0;edgeStyle=elbowEdgeStyle;elbow=vertical;startSize=10;endArrow=none;endFill=0;rounded=0;exitX=0.5;exitY=0;exitDx=0;exitDy=0;" parent="1" source="soBD-OVY6Vn1v3jjJq4L-193" edge="1">
          <mxGeometry width="160" relative="1" as="geometry">
            <mxPoint x="290" y="410" as="sourcePoint" />
            <mxPoint x="670" y="510" as="targetPoint" />
          </mxGeometry>
        </mxCell>
        <mxCell id="soBD-OVY6Vn1v3jjJq4L-258" value="" style="html=1;startArrow=diamondThin;startFill=0;edgeStyle=elbowEdgeStyle;elbow=vertical;startSize=10;endArrow=none;endFill=0;rounded=0;entryX=0.353;entryY=1.064;entryDx=0;entryDy=0;entryPerimeter=0;" parent="1" target="soBD-OVY6Vn1v3jjJq4L-37" edge="1">
          <mxGeometry width="160" relative="1" as="geometry">
            <mxPoint x="290" y="580" as="sourcePoint" />
            <mxPoint x="450" y="580" as="targetPoint" />
          </mxGeometry>
        </mxCell>
        <mxCell id="M1rgYASL6K99FkpESGn_-1" value="" style="html=1;startArrow=diamondThin;startFill=0;edgeStyle=elbowEdgeStyle;elbow=vertical;startSize=10;endArrow=none;endFill=0;rounded=0;entryX=0.628;entryY=1.1;entryDx=0;entryDy=0;entryPerimeter=0;" edge="1" parent="1" target="soBD-OVY6Vn1v3jjJq4L-104">
          <mxGeometry width="160" relative="1" as="geometry">
            <mxPoint x="301" y="1180" as="sourcePoint" />
            <mxPoint x="301" y="1090" as="targetPoint" />
            <Array as="points" />
          </mxGeometry>
        </mxCell>
        <mxCell id="M1rgYASL6K99FkpESGn_-3" value="" style="html=1;startArrow=diamondThin;startFill=0;edgeStyle=elbowEdgeStyle;elbow=vertical;startSize=10;endArrow=none;endFill=0;rounded=0;entryX=0.488;entryY=1.157;entryDx=0;entryDy=0;entryPerimeter=0;exitX=0.476;exitY=0.018;exitDx=0;exitDy=0;exitPerimeter=0;" edge="1" parent="1" source="soBD-OVY6Vn1v3jjJq4L-125" target="soBD-OVY6Vn1v3jjJq4L-124">
          <mxGeometry width="160" relative="1" as="geometry">
            <mxPoint x="740" y="1886" as="sourcePoint" />
            <mxPoint x="740" y="1770" as="targetPoint" />
          </mxGeometry>
        </mxCell>
        <mxCell id="M1rgYASL6K99FkpESGn_-4" value="" style="html=1;startArrow=diamondThin;startFill=0;edgeStyle=elbowEdgeStyle;elbow=vertical;startSize=10;endArrow=none;endFill=0;rounded=0;entryX=0.488;entryY=1.157;entryDx=0;entryDy=0;entryPerimeter=0;exitX=0.5;exitY=0;exitDx=0;exitDy=0;" edge="1" parent="1" source="soBD-OVY6Vn1v3jjJq4L-129">
          <mxGeometry width="160" relative="1" as="geometry">
            <mxPoint x="346" y="1930" as="sourcePoint" />
            <mxPoint x="346" y="1842.63" as="targetPoint" />
            <Array as="points">
              <mxPoint x="359" y="1895.63" />
            </Array>
          </mxGeometry>
        </mxCell>
        <mxCell id="M1rgYASL6K99FkpESGn_-12" value="&lt;&lt;Enumeration&gt;&gt;&#xa;Mode" style="swimlane;fontStyle=1;align=center;verticalAlign=top;childLayout=stackLayout;horizontal=1;startSize=39.5625;horizontalStack=0;resizeParent=1;resizeParentMax=0;resizeLast=0;collapsible=0;marginBottom=0;fillColor=#fff2cc;strokeColor=#d6b656;" vertex="1" parent="1">
          <mxGeometry x="785" y="250" width="123" height="208.5625" as="geometry" />
        </mxCell>
        <mxCell id="M1rgYASL6K99FkpESGn_-13" value="INSERT" style="text;strokeColor=none;fillColor=none;align=left;verticalAlign=top;spacingLeft=4;spacingRight=4;overflow=hidden;rotatable=0;points=[[0,0.5],[1,0.5]];portConstraint=eastwest;" vertex="1" parent="M1rgYASL6K99FkpESGn_-12">
          <mxGeometry y="39.5625" width="123" height="26" as="geometry" />
        </mxCell>
        <mxCell id="M1rgYASL6K99FkpESGn_-14" value="DELETE" style="text;strokeColor=none;fillColor=none;align=left;verticalAlign=top;spacingLeft=4;spacingRight=4;overflow=hidden;rotatable=0;points=[[0,0.5],[1,0.5]];portConstraint=eastwest;" vertex="1" parent="M1rgYASL6K99FkpESGn_-12">
          <mxGeometry y="65.5625" width="123" height="26" as="geometry" />
        </mxCell>
        <mxCell id="M1rgYASL6K99FkpESGn_-15" value="APPROVE" style="text;strokeColor=none;fillColor=none;align=left;verticalAlign=top;spacingLeft=4;spacingRight=4;overflow=hidden;rotatable=0;points=[[0,0.5],[1,0.5]];portConstraint=eastwest;" vertex="1" parent="M1rgYASL6K99FkpESGn_-12">
          <mxGeometry y="91.5625" width="123" height="26" as="geometry" />
        </mxCell>
        <mxCell id="M1rgYASL6K99FkpESGn_-16" value="RETRIEVE" style="text;strokeColor=none;fillColor=none;align=left;verticalAlign=top;spacingLeft=4;spacingRight=4;overflow=hidden;rotatable=0;points=[[0,0.5],[1,0.5]];portConstraint=eastwest;" vertex="1" parent="M1rgYASL6K99FkpESGn_-12">
          <mxGeometry y="117.5625" width="123" height="26" as="geometry" />
        </mxCell>
        <mxCell id="M1rgYASL6K99FkpESGn_-17" value="SUBMIT" style="text;strokeColor=none;fillColor=none;align=left;verticalAlign=top;spacingLeft=4;spacingRight=4;overflow=hidden;rotatable=0;points=[[0,0.5],[1,0.5]];portConstraint=eastwest;" vertex="1" parent="M1rgYASL6K99FkpESGn_-12">
          <mxGeometry y="143.5625" width="123" height="26" as="geometry" />
        </mxCell>
        <mxCell id="M1rgYASL6K99FkpESGn_-18" value="REJECT" style="text;strokeColor=none;fillColor=none;align=left;verticalAlign=top;spacingLeft=4;spacingRight=4;overflow=hidden;rotatable=0;points=[[0,0.5],[1,0.5]];portConstraint=eastwest;" vertex="1" parent="M1rgYASL6K99FkpESGn_-12">
          <mxGeometry y="169.5625" width="123" height="26" as="geometry" />
        </mxCell>
        <mxCell id="M1rgYASL6K99FkpESGn_-19" style="line;strokeWidth=1;fillColor=none;align=left;verticalAlign=middle;spacingTop=-1;spacingLeft=3;spacingRight=3;rotatable=0;labelPosition=right;points=[];portConstraint=eastwest;strokeColor=inherit;" vertex="1" parent="M1rgYASL6K99FkpESGn_-12">
          <mxGeometry y="195.5625" width="123" height="13" as="geometry" />
        </mxCell>
      </root>
    </mxGraphModel>
  </diagram>
</mxfile>
